<svg width="79" height="54" viewBox="0 0 79 54" fill="none" xmlns="http://www.w3.org/2000/svg">
<path d="M12.7549 1.74765V5.11457H5.72621V8.75181H10.9855V12.0204H5.72621V19H1.52371V1.74765H12.7549ZM19.1662 0.813767V19H14.9637V0.813767H19.1662ZM35.7531 5.2866V19H31.5506V17.1322C31.1246 17.7384 30.543 18.23 29.8057 18.6068C29.0848 18.9672 28.282 19.1475 27.3972 19.1475C26.3487 19.1475 25.423 18.9181 24.6202 18.4593C23.8173 17.9842 23.1947 17.3043 22.7524 16.4195C22.31 15.5348 22.0888 14.4944 22.0888 13.2984V5.2866H26.2667V12.7331C26.2667 13.6506 26.5043 14.3633 26.9794 14.8712C27.4546 15.3791 28.0936 15.6331 28.8964 15.6331C29.7156 15.6331 30.3627 15.3791 30.8379 14.8712C31.313 14.3633 31.5506 13.6506 31.5506 12.7331V5.2866H35.7531ZM46.8818 19L44.2521 15.1907L42.0403 19H37.4937L42.0157 11.9958L37.3709 5.2866H42.0895L44.7191 9.0713L46.9309 5.2866H51.4775L46.8818 12.1925L51.6004 19H46.8818ZM58.7984 19.1966C57.6024 19.1966 56.5375 18.9918 55.6036 18.5822C54.6697 18.1726 53.9324 17.6156 53.3917 16.911C52.8511 16.1901 52.5479 15.3873 52.4824 14.5026H56.6358C56.6849 14.9777 56.9061 15.3628 57.2993 15.6577C57.6925 15.9526 58.1758 16.1 58.7493 16.1C59.2736 16.1 59.675 16.0017 59.9535 15.8051C60.2484 15.5921 60.3959 15.3218 60.3959 14.9941C60.3959 14.6009 60.1911 14.3142 59.7815 14.134C59.3719 13.9373 58.7083 13.7244 57.7908 13.495C56.8078 13.2656 55.9886 13.028 55.3332 12.7823C54.6779 12.5201 54.1126 12.1187 53.6375 11.5781C53.1623 11.021 52.9248 10.2755 52.9248 9.34164C52.9248 8.5552 53.1378 7.8425 53.5638 7.20352C54.0061 6.54816 54.6451 6.03207 55.4807 5.65524C56.3327 5.2784 57.3403 5.08999 58.5035 5.08999C60.2238 5.08999 61.5755 5.51597 62.5586 6.36794C63.558 7.21991 64.1314 8.3504 64.2789 9.75943H60.3959C60.3303 9.28429 60.1174 8.90746 59.7569 8.62893C59.4128 8.3504 58.9541 8.21114 58.3806 8.21114C57.8891 8.21114 57.5123 8.30944 57.2502 8.50605C56.988 8.68628 56.8569 8.94023 56.8569 9.26791C56.8569 9.66112 57.0617 9.95604 57.4713 10.1526C57.8973 10.3493 58.5527 10.5459 59.4374 10.7425C60.4532 11.0046 61.2806 11.2668 61.9196 11.5289C62.5586 11.7747 63.1156 12.1843 63.5908 12.7577C64.0823 13.3148 64.3362 14.0684 64.3526 15.0187C64.3526 15.8215 64.1232 16.5424 63.6645 17.1814C63.2221 17.804 62.575 18.2955 61.723 18.6559C60.8874 19.0164 59.9126 19.1966 58.7984 19.1966ZM74.5668 15.4365V19H72.4287C70.905 19 69.7172 18.6314 68.8652 17.8941C68.0132 17.1404 67.5872 15.9198 67.5872 14.2323V8.77639H65.9161V5.2866H67.5872V1.94426H71.7897V5.2866H74.5422V8.77639H71.7897V14.2814C71.7897 14.691 71.888 14.9859 72.0846 15.1661C72.2813 15.3464 72.6089 15.4365 73.0677 15.4365H74.5668Z" fill="#12006C"/>
<path d="M6.60023 29.5722C7.09175 28.8185 7.70615 28.2287 8.44343 27.8027C9.18071 27.3603 9.99991 27.1391 10.901 27.1391V31.5874H9.74596C8.69738 31.5874 7.91095 31.8168 7.38666 32.2755C6.86237 32.7179 6.60023 33.5043 6.60023 34.6348V41H2.39773V27.2866H6.60023V29.5722ZM15.0233 25.8612C14.286 25.8612 13.6798 25.6482 13.2046 25.2222C12.7459 24.7798 12.5165 24.2392 12.5165 23.6002C12.5165 22.9448 12.7459 22.4042 13.2046 21.9782C13.6798 21.5358 14.286 21.3146 15.0233 21.3146C15.7442 21.3146 16.334 21.5358 16.7927 21.9782C17.2679 22.4042 17.5054 22.9448 17.5054 23.6002C17.5054 24.2392 17.2679 24.7798 16.7927 25.2222C16.334 25.6482 15.7442 25.8612 15.0233 25.8612ZM17.1122 27.2866V41H12.9097V27.2866H17.1122ZM19.3221 34.1187C19.3221 32.7097 19.5843 31.4727 20.1086 30.4077C20.6492 29.3428 21.3783 28.5236 22.2958 27.9501C23.2133 27.3767 24.2373 27.09 25.3678 27.09C26.269 27.09 27.0882 27.2784 27.8254 27.6552C28.5791 28.0321 29.1689 28.54 29.5949 29.1789V22.8138H33.7974V41H29.5949V39.0339C29.2017 39.6893 28.6364 40.2136 27.8992 40.6068C27.1783 41 26.3345 41.1966 25.3678 41.1966C24.2373 41.1966 23.2133 40.9099 22.2958 40.3364C21.3783 39.7466 20.6492 38.9192 20.1086 37.8543C19.5843 36.7729 19.3221 35.5277 19.3221 34.1187ZM29.5949 34.1433C29.5949 33.0947 29.3 32.2673 28.7102 31.6611C28.1367 31.0549 27.4322 30.7518 26.5966 30.7518C25.7611 30.7518 25.0484 31.0549 24.4585 31.6611C23.8851 32.2509 23.5984 33.0701 23.5984 34.1187C23.5984 35.1673 23.8851 36.0029 24.4585 36.6255C25.0484 37.2317 25.7611 37.5348 26.5966 37.5348C27.4322 37.5348 28.1367 37.2317 28.7102 36.6255C29.3 36.0193 29.5949 35.1919 29.5949 34.1433ZM49.7647 33.9221C49.7647 34.3153 49.7401 34.7249 49.691 35.1509H40.1801C40.2456 36.0029 40.5159 36.6582 40.9911 37.117C41.4826 37.5594 42.0806 37.7805 42.7851 37.7805C43.8337 37.7805 44.5628 37.3382 44.9724 36.4534H49.4452C49.2158 37.3546 48.798 38.1656 48.1918 38.8865C47.602 39.6074 46.8565 40.1726 45.9554 40.5822C45.0543 40.9918 44.0467 41.1966 42.9326 41.1966C41.5891 41.1966 40.393 40.9099 39.3445 40.3364C38.2959 39.763 37.4767 38.9438 36.8869 37.8788C36.2971 36.8139 36.0021 35.5687 36.0021 34.1433C36.0021 32.7179 36.2889 31.4727 36.8623 30.4077C37.4521 29.3428 38.2713 28.5236 39.3199 27.9501C40.3685 27.3767 41.5727 27.09 42.9326 27.09C44.2597 27.09 45.4393 27.3685 46.4715 27.9256C47.5037 28.4826 48.3065 29.2773 48.88 30.3094C49.4698 31.3416 49.7647 32.5459 49.7647 33.9221ZM45.4639 32.8162C45.4639 32.0953 45.2181 31.5219 44.7266 31.0959C44.2351 30.6699 43.6207 30.4569 42.8834 30.4569C42.1789 30.4569 41.5809 30.6617 41.0894 31.0713C40.6142 31.4809 40.3193 32.0625 40.2046 32.8162H45.4639Z" fill="#12006C"/>
<rect x="0.874023" y="49.392" width="23.04" height="4.608" fill="#424CF9"/>
</svg>
